<?xml version="1.0" encoding="UTF-8"?>
<svg width="170px" height="170px" viewBox="0 0 170 170" version="1.1" xmlns="http://www.w3.org/2000/svg" xmlns:xlink="http://www.w3.org/1999/xlink">
    <!-- Generator: Sketch 46 (44423) - http://www.bohemiancoding.com/sketch -->
    <title>behance</title>
    <desc>Created with Sketch.</desc>
    <defs></defs>
    <g id="Basics" stroke="none" stroke-width="1" fill="none" fill-rule="evenodd">
        <g id="behance" fill-rule="nonzero" fill="#006DF0">
            <path d="M65.4534884,62.001343 L63.0465116,62.001343 L47,62.001343 L47,77 L64.25,77 C67.3255814,77 70,76.1818914 70,68.9552658 C70,61.7286401 65.4534884,62.001343 65.4534884,62.001343 Z" id="Shape"></path>
            <path d="M65.349647,88 L47,88 L47,107 L63.0891832,107 C63.3551202,107 63.7540255,107 64.2858994,107 C66.9452685,107 71.9980698,105.914286 71.9980698,97.7714286 C72.1310383,88.1357143 65.349647,88 65.349647,88 Z" id="Shape"></path>
            <path d="M127.264076,0 L42.6011102,0 C19.1435369,0 0,19.1587302 0,42.6349206 L0,127.5 C0,150.84127 19.1435369,170 42.6011102,170 L127.39889,170 C150.856463,170 170,150.84127 170,127.365079 L170,42.6349206 C169.865186,19.1587302 150.721649,0 127.264076,0 Z M99.7620936,53.968254 L128.072958,53.968254 L128.072958,60.7142857 L99.7620936,60.7142857 L99.7620936,53.968254 Z M86.5503569,98.3571429 C86.5503569,119.404762 65.7890563,120.079365 65.7890563,120.079365 L46.6455194,120.079365 L46.1062649,120.079365 L32.3552736,120.079365 L32.3552736,49.9206349 L45.9714512,49.9206349 L46.5107058,49.9206349 L65.6542427,49.9206349 C76.0348929,49.9206349 84.258525,55.8571429 84.258525,68.2698413 C84.258525,80.6825397 74.2823156,81.3571429 74.2823156,81.3571429 C87.4940523,81.2222222 86.5503569,98.3571429 86.5503569,98.3571429 Z M137.375099,97.1428571 L103.267248,97.1428571 C103.267248,110.634921 114.861221,109.555556 114.861221,109.555556 C125.781126,109.555556 125.376685,102.539683 125.376685,102.539683 L136.970658,102.539683 C136.970658,121.428571 114.45678,120.619048 114.45678,120.619048 C87.4940523,120.619048 89.2466297,94.0396825 89.2466297,94.0396825 C89.2466297,94.0396825 89.2466297,67.3253968 114.45678,67.3253968 C141.015067,67.1904762 137.375099,97.1428571 137.375099,97.1428571 Z" id="Shape"></path>
            <path d="M114.82495,77 C104.512494,77 103,88 103,88 L124.999907,88 C124.999907,88 125.137407,77 114.82495,77 Z" id="Shape"></path>
        </g>
    </g>
</svg>