<?xml version="1.0" encoding="UTF-8"?>
<svg width="170px" height="170px" viewBox="0 0 170 170" version="1.1" xmlns="http://www.w3.org/2000/svg" xmlns:xlink="http://www.w3.org/1999/xlink">
    <!-- Generator: Sketch 46 (44423) - http://www.bohemiancoding.com/sketch -->
    <title>dribbble-logo</title>
    <desc>Created with Sketch.</desc>
    <defs></defs>
    <g id="Basics" stroke="none" stroke-width="1" fill="none" fill-rule="evenodd">
        <g id="dribbble-logo" fill-rule="nonzero" fill="#006DF0">
            <path d="M84.9966404,0 C38.0514604,0.00355717165 0,38.057389 0,85.0037548 C0,131.94182 38.0514604,170 84.9966404,170 C131.94182,170 169.994862,131.94182 170,85.0037548 C169.994862,38.057389 131.94182,0.00355717165 84.9966404,0 Z M137.077191,44.0717758 C145.370539,54.6029801 150.563219,67.6431762 151.218134,81.88372 C141.622466,79.8470416 132.556025,78.8557765 124.10379,78.8557765 L124.10379,78.8538002 L124.041342,78.8538002 C117.236473,78.8538002 110.850164,79.4715624 104.831034,80.5391091 C103.368246,76.9538753 101.885301,73.5101379 100.391289,70.2118493 C113.796293,64.3322398 126.662978,55.9602387 137.077191,44.0717758 Z M84.9966404,18.6870084 C100.63871,18.6870084 114.98834,24.155567 126.349156,33.259555 C117.655429,43.6678392 106.180388,51.2058812 93.7840402,56.5285957 C85.0737125,39.6853879 76.6570491,27.6360618 70.9035216,20.2695546 C75.457887,19.2589226 80.158887,18.6870084 84.9966404,18.6870084 Z M55.7057033,25.5997787 C60.3086835,31.0367179 69.5245247,42.9955338 79.3676139,61.6667325 C59.3490376,67.6257855 39.1909411,69.0257302 26.99419,69.022173 C26.6463776,69.022173 26.3025177,69.022173 25.9649816,69.0186159 L25.9539149,69.0186159 C23.8998459,69.0186159 22.1335125,68.9862061 20.6588672,68.9411486 C25.4171772,49.9007944 38.4613256,34.1318525 55.7057033,25.5997787 Z M18.681475,85.0037548 C18.681475,84.6919094 18.6925418,84.3749259 18.7111181,84.0484566 C20.6047192,84.1184143 23.0330817,84.178491 25.9558911,84.178491 L25.9724912,84.178491 C39.3027944,84.0915379 62.5773685,82.9777479 86.1645785,75.5310067 C87.4502984,78.342358 88.7229754,81.269515 89.9810284,84.3085254 C74.2294771,89.5766966 61.8236433,97.9696455 52.6477214,106.327813 C43.8140785,114.37374 37.8459349,122.34299 34.358721,127.662938 C24.6006087,116.10964 18.6866132,101.262401 18.681475,85.0037548 Z M84.9966404,151.321687 C70.2387257,151.321687 56.6364966,146.440852 45.6017549,138.251057 C47.9471167,134.388364 52.9757717,126.972847 60.9833603,119.310304 C69.2221651,111.415359 80.5952334,103.288012 95.4444488,98.4514446 C100.49168,112.599897 105.058693,128.773566 108.537607,146.979566 C101.208648,149.770365 93.2895933,151.321687 84.9966404,151.321687 Z M122.529149,139.545868 C119.16446,123.080511 114.934588,108.233271 110.290107,94.9832022 C114.597051,94.3654401 119.118217,94.0168373 123.89036,94.0168373 L124.061895,94.0168373 L124.072962,94.0168373 L124.084028,94.0168373 C131.993597,94.0168373 140.685348,94.9998024 150.111458,97.141615 C146.848346,114.676495 136.69183,129.77827 122.529149,139.545868 Z" id="Dribbble"></path>
        </g>
    </g>
</svg>