<?xml version="1.0" encoding="UTF-8"?>
<svg width="170px" height="170px" viewBox="0 0 170 170" version="1.1" xmlns="http://www.w3.org/2000/svg" xmlns:xlink="http://www.w3.org/1999/xlink">
    <!-- Generator: Sketch 46 (44423) - http://www.bohemiancoding.com/sketch -->
    <title>linkedin-sign-2</title>
    <desc>Created with Sketch.</desc>
    <defs></defs>
    <g id="Basics" stroke="none" stroke-width="1" fill="none" fill-rule="evenodd">
        <g id="linkedin-sign-2" fill-rule="nonzero" fill="#006DF0">
            <path d="M160.648508,9.35134322 C154.416117,3.11750206 146.907167,0 138.127471,0 L31.8752423,0 C23.0955465,0 15.5865961,3.11750206 9.35149249,9.35134322 C3.11755182,15.5863473 0,23.0947902 0,31.8747335 L0,138.124104 C0,146.903272 3.11755182,154.41249 9.35149249,160.647494 C15.5865961,166.882498 23.0955465,170 31.8752423,170 L138.126308,170 C146.906004,170 154.414955,166.882498 160.647345,160.647494 C166.882448,154.41249 170,146.903659 170,138.124104 L170,31.8747335 C169.999612,23.0947902 166.882061,15.5851844 160.648508,9.35134322 Z M51.7970264,142.329359 L26.2301553,142.329359 L26.2301553,65.5194887 L51.7970264,65.5194887 L51.7970264,142.329359 Z M49.4741751,51.2988414 C46.8183249,53.8445559 43.3131143,55.117607 38.9593186,55.117607 L38.8476729,55.117607 C34.6423506,55.117607 31.2309534,53.8445559 28.6107678,51.2988414 C25.9901945,48.7531269 24.6806832,45.5991855 24.6806832,41.8362419 C24.6806832,37.9996443 26.0281851,34.8263202 28.7204752,32.3170451 C31.4147037,29.8085452 34.9005313,28.5537138 39.1795088,28.5537138 C43.458874,28.5537138 46.8900417,29.8085452 49.4730121,32.3170451 C52.0552072,34.8263202 53.3837138,37.9996443 53.4569813,41.8362419 C53.4565936,45.5976349 52.1300253,48.7515763 49.4741751,51.2988414 Z M143.771008,142.329359 L118.204137,142.329359 L118.204137,101.269197 C118.204137,89.6865259 113.925934,83.8934457 105.366429,83.8934457 C102.120174,83.8934457 99.3887305,84.7970639 97.1759743,86.6050755 C94.9605044,88.4119242 93.3009372,90.6072008 92.1957221,93.1916805 C91.6781976,94.5182277 91.4207922,96.5836406 91.4207922,99.3867564 L91.4207922,142.328971 L65.8539211,142.328971 C66.0752742,95.9932457 66.0752742,70.3887927 65.8539211,65.5187134 L91.4207922,65.5187134 L91.4207922,76.3629067 C96.7964563,67.9582111 104.429845,63.7471411 114.331813,63.7471411 C123.185939,63.7471411 130.307231,66.6622885 135.693362,72.4902574 C141.079881,78.3193892 143.772558,86.9163605 143.772558,98.2765194 L143.772558,142.329359 L143.771008,142.329359 Z" id="Shape"></path>
        </g>
    </g>
</svg>