<?xml version="1.0" encoding="UTF-8"?>
<svg width="236px" height="170px" viewBox="0 0 236 170" version="1.1" xmlns="http://www.w3.org/2000/svg" xmlns:xlink="http://www.w3.org/1999/xlink">
    <!-- Generator: Sketch 46 (44423) - http://www.bohemiancoding.com/sketch -->
    <title>Shape</title>
    <desc>Created with Sketch.</desc>
    <defs></defs>
    <g id="Basics" stroke="none" stroke-width="1" fill="none" fill-rule="evenodd">
        <g id="send-mail" fill-rule="nonzero" fill="#474747">
            <path d="M232.883731,6.59743222 C229.806996,2.38851041 224.956896,-0.000479740985 219.909329,7.22616078e-08 C218.604048,7.22616078e-08 217.285379,0.159777883 215.981053,0.489409584 L12.1644623,51.9762498 C5.85703636,53.56875 1.12646687,58.8159877 0.173563601,65.2718749 C-0.777427172,71.728242 2.2366733,78.1246324 7.81352417,81.4818856 L50.9131528,107.433065 L50.9131528,164.359548 C50.9131528,166.513909 52.1366748,168.480184 54.0649533,169.426856 C55.9937098,170.373047 58.2915789,170.1341 59.9855761,168.810775 L100.409617,137.236665 L133.617794,157.231442 C136.208754,158.791795 139.062682,159.535026 141.881708,159.535026 C147.288346,159.535026 152.5635,156.80057 155.601028,151.846978 L233.612872,24.6110609 C237.043897,19.0164385 236.75511,11.8940906 232.883731,6.59743222 Z M140.917807,139.361758 L90.3857245,108.934401 L141.651729,64.6020556 C142.369873,63.9811773 142.538173,62.9323055 142.050486,62.1171028 C141.563754,61.3019001 140.56256,60.9564346 139.678985,61.299501 L61.5911201,91.5973085 L23.6638485,68.7596374 L213.629156,20.7720752 L140.917807,139.361758 Z" id="Shape"></path>
        </g>
    </g>
</svg>